# xmcd
#
# Track frame offsets:
#	187
#	34252
#	56007
#	74782
#	97230
#	113990
#	136337
#	156667
#
# Disc length: 2388 seconds
#
# Revision: 0
# Processed by: cddbd v1.5.1PL0 Copyright (c) Steve Scherf et al.
# Submitted via: audiograbber 1.82.02
#
DISCID=80095208
DTITLE=Curtis Mayfield - Take It to the Streets
DYEAR=1990
DGENRE=Soul
TTITLE0=Homeless
TTITLE1=Got to Be Real
TTITLE2=Do Be Down
TTITLE3=Who Was that Lady
TTITLE4=On and On
TTITLE5=He's a Fly Guy
TTITLE6=Don't Push
TTITLE7=I Mo Git U Sucka
EXTD=
EXTT0=
EXTT1=
EXTT2=
EXTT3=
EXTT4=
EXTT5=
EXTT6=
EXTT7=
PLAYORDER=
